Coordinates
version=1
nRows=49
nColumns=12
inDegrees=yes

Units are S.I. units (second, meters, Newtons, ...)
Angles are in degrees

endheader
time	SC_y	SC_z	SC_x	AC_y	AC_z	AC_x	GH_y	GH_z	GH_yy	EL_x	PS_y
       0.0              -11.97          9.095          18.38          67.59          3.794          1.246         -155.0          78.44         -139.5          31.76          7.462
   0.04114              -11.98          9.095          18.39          67.59          3.794          1.248         -155.0          78.44         -139.5          31.76          7.479
   0.08229              -11.98          9.095           18.4          67.59          3.793           1.25         -154.9          78.44         -139.4          31.75          7.497
    0.1234              -11.99          9.095          18.41          67.58          3.793          1.253         -154.9          78.44         -139.4          31.75          7.516
    0.1646               -12.0          9.094          18.41          67.58          3.792          1.256         -154.8          78.44         -139.4          31.74          7.536
    0.2057              -12.01          9.094          18.42          67.58          3.792          1.258         -154.8          78.44         -139.4          31.74          7.558
    0.2469              -12.02          9.094          18.43          67.58          3.791          1.261         -154.7          78.45         -139.4          31.73          7.581
     0.288              -12.02          9.094          18.44          67.57          3.791          1.265         -154.7          78.45         -139.3          31.73          7.606
    0.3292              -12.03          9.094          18.45          67.57           3.79          1.268         -154.6          78.45         -139.3          31.72          7.632
    0.3703              -12.04          9.094          18.46          67.56          3.789          1.272         -154.5          78.45         -139.3          31.71           7.66
    0.4114              -12.06          9.094          18.47          67.56          3.789          1.276         -154.4          78.45         -139.3          31.71          7.691
    0.4526              -12.07          9.094          18.49          67.56          3.788           1.28         -154.4          78.46         -139.2           31.7          7.724
    0.4937              -12.08          9.094           18.5          67.55          3.787          1.285         -154.3          78.46         -139.2          31.69          7.759
    0.5349              -12.09          9.093          18.51          67.55          3.786           1.29         -154.2          78.46         -139.1          31.68          7.797
     0.576              -12.11          9.093          18.53          67.54          3.785          1.295         -154.1          78.46         -139.1          31.67          7.838
    0.6172              -12.13          9.093          18.55          67.53          3.784          1.301         -153.9          78.47         -139.1          31.66          7.883
    0.6583              -12.14          9.093          18.57          67.53          3.783          1.308         -153.8          78.47         -139.0          31.65          7.932
    0.6995              -12.16          9.093          18.59          67.52          3.782          1.315         -153.7          78.47         -139.0          31.64          7.985
    0.7406              -12.18          9.092          18.61          67.51           3.78          1.322         -153.5          78.48         -138.9          31.63          8.043
    0.7817              -12.21          9.092          18.63           67.5          3.779           1.33         -153.4          78.48         -138.8          31.61          8.106
    0.8229              -12.23          9.092          18.66          67.49          3.777           1.34         -153.2          78.49         -138.8           31.6          8.176
     0.864              -12.26          9.092          18.69          67.48          3.775           1.35         -153.0          78.49         -138.7          31.58          8.253
    0.9052              -12.29          9.091          18.72          67.47          3.773          1.361         -152.8           78.5         -138.6          31.56          8.337
    0.9463              -12.33          9.091          18.76          67.46          3.771          1.373         -152.5           78.5         -138.5          31.54          8.431
    0.9875              -12.36           9.09           18.8          67.44          3.768          1.387         -152.3          78.51         -138.4          31.51          8.535
     1.029              -12.41           9.09          18.85          67.43          3.765          1.402         -152.0          78.52         -138.3          31.49          8.652
      1.07              -12.45          9.089           18.9          67.41          3.762          1.419         -151.6          78.53         -138.2          31.46          8.782
     1.111              -12.51          9.089          18.95          67.39          3.759          1.438         -151.2          78.54         -138.0          31.42          8.929
     1.152              -12.57          9.088          19.02          67.37          3.755           1.46         -150.8          78.55         -137.8          31.39          9.094
     1.193              -12.64          9.087          19.09          67.34           3.75          1.485         -150.3          78.56         -137.7          31.34          9.282
     1.234              -12.71          9.086          19.17          67.31          3.745          1.513         -149.8          78.58         -137.4          31.29          9.497
     1.275               -12.8          9.085          19.27          67.28          3.739          1.546         -149.1          78.59         -137.2          31.24          9.743
     1.317              -12.91          9.084          19.38          67.24          3.732          1.583         -148.4          78.61         -136.9          31.17          10.03
     1.358              -13.03          9.083          19.51           67.2          3.724          1.626         -147.6          78.64         -136.6           31.1          10.36
     1.399              -13.17          9.081          19.66          67.14          3.714          1.677         -146.6          78.66         -136.2          31.01          10.74
      1.44              -13.34          9.079          19.84          67.08          3.703          1.737         -145.4          78.69         -135.7           30.9           11.2
     1.481              -13.53          9.077          20.05          67.01           3.69          1.808         -144.0          78.73         -135.2          30.78          11.74
     1.522              -13.77          9.075           20.3          66.92          3.674          1.894         -142.3          78.78         -134.5          30.63          12.39
     1.563              -14.06          9.071           20.6          66.81          3.655          1.997         -140.3          78.83         -133.8          30.45          13.18
     1.605              -14.41          9.067          20.98          66.68          3.632          2.123         -137.8           78.9         -132.8          30.23          14.14
     1.646              -14.84          9.063          21.44          66.52          3.603          2.278         -134.7          78.98         -131.6          29.96          15.32
     1.687              -15.38          9.057          22.01          66.32          3.567          2.473         -130.9          79.08         -130.1          29.62           16.8
     1.728              -16.06          9.049          22.73          66.06          3.522          2.717         -126.1           79.2         -128.3          29.19          18.66
     1.769              -16.92          9.039          23.65          65.74          3.465          3.028         -120.0          79.37         -125.9          28.65          21.02
      1.81              -18.02          9.027          24.83          65.33          3.391          3.425         -112.2          79.57         -122.9          27.95          24.05
     1.851              -19.44          9.011          26.33           64.8          3.297          3.936         -102.2          79.84         -119.0          27.06          27.94
     1.893              -21.25          8.991          28.26          64.12          3.176          4.588         -89.37          80.18         -114.0          25.92           32.9
     1.934              -23.53          8.965          30.68          63.27          3.025          5.408         -73.27          80.61         -107.8          24.49          39.14
     1.975               -26.3          8.934          33.64          62.23           2.84          6.407         -53.64          81.13         -100.2          22.74          46.74
